<svg width="18" height="16" viewBox="0 0 18 16" fill="none" xmlns="http://www.w3.org/2000/svg">
<path d="M8.18182 9.25V3.025H9.69697V9.25H8.18182ZM8.88889 12.95C8.68687 12.95 8.5101 12.875 8.35859 12.725C8.20707 12.575 8.13131 12.4 8.13131 12.2C8.13131 12 8.20707 11.825 8.35859 11.675C8.5101 11.525 8.68687 11.45 8.88889 11.45C9.09091 11.45 9.26768 11.525 9.41919 11.675C9.57071 11.825 9.64647 12 9.64647 12.2C9.64647 12.4 9.57071 12.575 9.41919 12.725C9.26768 12.875 9.09091 12.95 8.88889 12.95ZM12.0455 0H17.6768V1.5H14.5455L14.9242 1.85C15.968 2.8 16.7045 3.8 17.1338 4.85C17.5631 5.9 17.7778 6.925 17.7778 7.925C17.7778 9.725 17.2475 11.3458 16.1869 12.7875C15.1263 14.2292 13.7458 15.225 12.0455 15.775V14.2C13.3249 13.7167 14.3476 12.9 15.1136 11.75C15.8796 10.6 16.2626 9.325 16.2626 7.925C16.2626 7.025 16.1111 6.1875 15.8081 5.4125C15.5051 4.6375 15.0084 3.94167 14.3182 3.325L13.5606 2.65V5.575H12.0455V0ZM5.73232 16H0.10101V14.5H3.20707L2.85354 14.15C1.84343 13.15 1.11532 12.1375 0.669192 11.1125C0.223064 10.0875 0 9.08333 0 8.1C0 6.28333 0.526094 4.65833 1.57828 3.225C2.63047 1.79167 4.01515 0.8 5.73232 0.25V1.8C4.45286 2.3 3.43013 3.125 2.66414 4.275C1.89815 5.425 1.51515 6.7 1.51515 8.1C1.51515 8.96667 1.66246 9.7875 1.95707 10.5625C2.25168 11.3375 2.75253 12.0417 3.4596 12.675L4.21717 13.35V10.425H5.73232V16Z" fill="#0137FF"/>
</svg>
