<svg width="22" height="16" viewBox="0 0 22 16" fill="none" xmlns="http://www.w3.org/2000/svg">
<path d="M8.1047 0.0289488C7.93928 0.0661669 7.78627 0.173688 7.67048 0.334969C7.58777 0.442489 7.58364 0.508656 7.57123 1.93537L7.55882 3.41998H5.01555C2.24069 3.41998 2.30273 3.41584 2.09596 3.65983C2.03806 3.73014 1.54595 4.65233 1.00007 5.70272L0.0158472 7.61742L0.003441 10.5494C-0.00482981 13.4483 -0.0048298 13.4814 0.0820137 13.6592C0.230888 13.9735 0.363221 14.0232 1.12827 14.048L1.78166 14.0686L1.88091 14.3292C2.16212 15.0818 2.88582 15.7228 3.69636 15.9296C4.01478 16.0123 4.65991 16.0123 4.97833 15.9296C5.83022 15.7104 6.53324 15.0735 6.83926 14.2423L6.9137 14.048H10.2716H13.6296L13.6792 14.2217C13.857 14.8254 14.4649 15.4954 15.0853 15.7683C15.6063 15.9999 16.3052 16.066 16.8304 15.9296C17.6368 15.7187 18.3564 15.0901 18.6376 14.3499L18.7492 14.048H19.6838C20.5771 14.048 20.6267 14.0438 20.7963 13.9529C20.9203 13.8867 21.0072 13.7998 21.0733 13.6758L21.1684 13.498V7.03432C21.1684 2.55568 21.156 0.537603 21.1229 0.454895C21.0692 0.310156 20.9369 0.165417 20.7756 0.0785732C20.6598 0.0124073 20.1346 0.00827122 14.4484 9.53674e-07C11.0367 9.53674e-07 8.18327 0.0124073 8.1047 0.0289488ZM19.8038 7.03846V12.6833H19.2744H18.741L18.6913 12.5096C18.5218 11.9306 17.9552 11.2897 17.3639 11.0002C16.9172 10.7851 16.6526 10.7231 16.1853 10.7231C15.7221 10.7231 15.4574 10.7851 15.0108 10.996C14.4195 11.2772 13.8529 11.9224 13.6792 12.5055L13.6296 12.6833H11.2766H8.92764V7.03846V1.39363H14.3657H19.8038V7.03846ZM7.56296 5.98393V7.1832H4.68885C3.10913 7.1832 1.81475 7.17079 1.81475 7.15839C1.81475 7.14184 2.08768 6.60424 2.41852 5.95912L3.01815 4.78466H5.29262H7.56296V5.98393ZM7.56296 10.6156V12.6833H7.23626H6.9137L6.82272 12.4352C6.55806 11.7115 5.9212 11.0994 5.16442 10.8513C3.75839 10.384 2.24897 11.1739 1.79821 12.6088C1.78166 12.6667 1.7279 12.6833 1.56662 12.6833H1.35985V10.6156V8.54788H4.46141H7.56296V10.6156ZM4.73434 12.1498C5.32571 12.3276 5.7103 12.9852 5.5821 13.6013C5.44977 14.2465 4.91217 14.6559 4.26291 14.6187C3.28282 14.5649 2.74521 13.4856 3.28695 12.6626C3.60538 12.1746 4.16366 11.9803 4.73434 12.1498ZM16.7146 12.1994C16.9255 12.2904 17.2067 12.5634 17.3225 12.7949C17.4755 13.0968 17.4879 13.5559 17.3556 13.8495C17.2191 14.1431 17.0454 14.3374 16.7766 14.4863C16.5781 14.5938 16.5202 14.6062 16.1853 14.6062C15.8627 14.6062 15.7841 14.5897 15.6063 14.4946C15.1762 14.2671 14.924 13.8577 14.924 13.3822C14.924 13.0224 15.015 12.7701 15.2383 12.522C15.6105 12.1085 16.1894 11.9803 16.7146 12.1994Z" fill="#0137FF"/>
<path d="M16.9421 4.02795C16.8594 4.0693 16.0695 4.74337 15.1887 5.52496C14.3078 6.31069 13.5304 6.99717 13.4642 7.05506L13.3401 7.16258L12.6743 6.47611C12.3063 6.09978 11.9672 5.76068 11.9176 5.71933C11.6901 5.53323 11.3097 5.55805 11.0574 5.78136C10.8837 5.9385 10.8134 6.137 10.8506 6.38926C10.8754 6.56709 10.9292 6.63325 11.7976 7.53063C12.7901 8.56035 12.9886 8.73817 13.2037 8.77539C13.5221 8.83742 13.5552 8.81675 15.718 6.89378C17.856 4.99563 17.9015 4.95014 17.9015 4.63172C17.9015 4.46216 17.7526 4.19336 17.5996 4.09411C17.4094 3.96178 17.1364 3.93697 16.9421 4.02795Z" fill="#0137FF"/>
</svg>
