<?xml version="1.0" standalone="no"?>
<!DOCTYPE svg PUBLIC "-//W3C//DTD SVG 20010904//EN"
 "http://www.w3.org/TR/2001/REC-SVG-20010904/DTD/svg10.dtd">
<svg version="1.0" xmlns="http://www.w3.org/2000/svg"
 width="64.000000pt" height="64.000000pt" viewBox="0 0 64.000000 64.000000"
 preserveAspectRatio="xMidYMid meet">

<g transform="translate(0.000000,64.000000) scale(0.100000,-0.100000)"
fill="#000000" stroke="none">
<path d="M485 596 c-97 -43 -97 -136 -1 -243 l42 -46 41 47 c96 109 95 201 -4
242 -39 17 -40 17 -78 0z m63 -78 c30 -30 -4 -77 -41 -57 -29 17 -15 69 18 69
6 0 16 -5 23 -12z"/>
<path d="M294 326 c-21 -18 -28 -32 -28 -61 0 -29 7 -43 28 -61 23 -21 38 -24
102 -24 61 0 78 -4 94 -20 24 -24 24 -29 4 -58 -14 -21 -22 -22 -160 -22 -137
0 -144 -1 -144 -20 0 -19 7 -20 140 -20 183 0 210 12 210 94 0 57 -35 79 -135
84 -71 4 -87 8 -96 24 -25 46 15 78 97 78 32 0 44 4 44 15 0 12 -14 15 -64 15
-54 0 -70 -4 -92 -24z"/>
<path d="M54 311 c-38 -23 -58 -70 -50 -115 8 -41 90 -156 111 -156 21 0 103
115 111 156 18 97 -87 167 -172 115z m93 -77 c8 -22 -10 -49 -32 -49 -22 0
-40 27 -32 49 8 21 56 21 64 0z"/>
</g>
</svg>
