<?xml version="1.0" standalone="no"?>
<!DOCTYPE svg PUBLIC "-//W3C//DTD SVG 20010904//EN"
 "http://www.w3.org/TR/2001/REC-SVG-20010904/DTD/svg10.dtd">
<svg version="1.0" xmlns="http://www.w3.org/2000/svg"
 width="128.000000pt" height="128.000000pt" viewBox="0 0 128.000000 128.000000"
 preserveAspectRatio="xMidYMid meet">

<g transform="translate(0.000000,128.000000) scale(0.100000,-0.100000)"
fill="#000000" stroke="none">
<path d="M1061 1154 c-13 -9 -29 -32 -37 -50 -19 -45 -18 -148 2 -189 14 -31
64 -65 94 -65 7 0 27 7 45 16 44 21 65 67 65 143 0 106 -38 161 -110 161 -20
0 -46 -7 -59 -16z"/>
<path d="M70 1050 c-24 -24 -25 -38 -4 -68 l15 -22 399 0 399 0 15 22 c21 30
20 44 -4 68 -19 19 -33 20 -410 20 -377 0 -391 -1 -410 -20z"/>
<path d="M318 783 c-15 -10 -34 -34 -43 -55 l-15 -38 -90 0 c-84 0 -90 -1
-106 -25 -15 -23 -15 -27 0 -50 16 -24 22 -25 106 -25 l90 0 16 -39 c29 -74
121 -93 175 -35 22 23 24 34 24 125 0 93 -2 100 -26 125 -34 33 -94 41 -131
17z"/>
<path d="M602 678 c-7 -7 -12 -24 -12 -38 0 -49 4 -50 317 -50 l293 0 16 25
c15 23 15 27 0 50 l-16 25 -293 0 c-215 0 -296 -3 -305 -12z"/>
<path d="M863 416 c-46 -21 -63 -61 -63 -151 0 -113 32 -155 116 -155 41 0 94
45 94 79 0 20 6 21 90 21 77 0 93 3 110 20 24 24 25 38 4 68 -14 20 -23 22
-107 22 l-93 0 -9 32 c-18 58 -86 88 -142 64z"/>
<path d="M66 298 c-21 -30 -20 -44 4 -68 19 -19 33 -20 298 -20 235 0 281 2
300 16 28 20 30 69 3 84 -12 6 -127 10 -305 10 -283 0 -285 0 -300 -22z"/>
</g>
</svg>
