<svg width="16" height="16" viewBox="0 0 16 16" fill="none" xmlns="http://www.w3.org/2000/svg">
<path d="M5.80223 0.0472852C5.63307 0.10252 5.34309 0.399408 5.2913 0.575469C5.19464 0.899974 5.26369 1.15889 5.50879 1.40054C5.68485 1.58005 5.86091 1.65945 6.0784 1.65945C6.29589 1.65945 6.47195 1.58005 6.64801 1.40054C7.00013 1.05187 7.00013 0.609991 6.64801 0.26132C6.40636 0.0162156 6.12328 -0.0528281 5.80223 0.0472852Z" fill="#0137FF"/>
<path d="M9.54441 0.0576429C9.38216 0.11633 9.17848 0.295843 9.09563 0.458096C9.01968 0.603087 8.99896 0.886167 9.0473 1.07258C9.07491 1.18305 9.13705 1.27626 9.26478 1.40054C9.42358 1.55244 9.48917 1.58696 9.80678 1.69053C10.5904 1.94253 11.305 2.32227 11.9264 2.81939C14.8918 5.19794 15.1922 9.58221 12.572 12.3336C12.0127 12.9205 11.4604 13.3278 10.7216 13.6938C8.53982 14.7674 5.9645 14.5326 4.00711 13.0827C3.67225 12.8342 3.0405 12.23 2.82992 11.9573C2.68838 11.7743 2.6504 11.7536 2.3259 11.688L2.21198 11.6639V12.6961V13.7283L2.35697 13.8698C3.24418 14.7225 4.61124 15.4578 5.90581 15.7754C6.62732 15.9515 7.04848 15.9998 7.87355 15.9998C8.71589 16.0033 9.15086 15.948 9.89653 15.7616C12.7826 15.0263 15.0714 12.7202 15.7756 9.84113C15.9551 9.09891 16 8.695 16 7.87338C16 7.10355 15.9586 6.67893 15.8101 6.04373C15.3959 4.25895 14.3947 2.6744 12.9483 1.51446C12.2371 0.948306 11.3188 0.44774 10.4558 0.161208C9.95177 -0.00794792 9.78261 -0.0252094 9.54441 0.0576429Z" fill="#0137FF"/>
<path d="M2.66081 1.87694C2.59522 1.89765 2.46058 1.99431 2.36737 2.09097C2.12227 2.33263 2.05322 2.59154 2.14988 2.91604C2.20512 3.10591 2.49165 3.39244 2.68152 3.44768C3.00603 3.54434 3.26494 3.4753 3.50659 3.23019C3.85871 2.88152 3.85871 2.43964 3.50659 2.09097C3.26494 1.84587 2.98186 1.77682 2.66081 1.87694Z" fill="#0137FF"/>
<path d="M0.831096 5.01843C0.765504 5.03914 0.630869 5.13581 0.53766 5.23247C0.292555 5.47412 0.223512 5.73303 0.320173 6.05754C0.375408 6.24741 0.661939 6.53394 0.851809 6.58917C1.17631 6.68584 1.43523 6.61679 1.67688 6.37169C2.029 6.02302 2.029 5.58114 1.67688 5.23247C1.43523 4.98736 1.15215 4.91832 0.831096 5.01843Z" fill="#0137FF"/>
<path d="M0.554938 9.16108C0.385781 9.21631 0.0957981 9.5132 0.0440153 9.68926C-0.0146718 9.89294 -0.0146718 14.9676 0.0440153 15.1713C0.0992502 15.3612 0.385781 15.6477 0.575651 15.703C0.907061 15.7996 1.20395 15.7168 1.42834 15.4682C1.51119 15.3785 1.5975 15.2404 1.61821 15.1644C1.64928 15.0678 1.65964 14.4671 1.65964 13.0034C1.65964 11.8918 1.66309 10.9804 1.66999 10.9804C1.67345 10.9804 2.58827 11.1806 3.69642 11.4292C4.80457 11.6743 5.75738 11.8779 5.81606 11.8779C6.23033 11.8779 6.63078 11.4706 6.63078 11.0494C6.63078 10.7629 6.4202 10.4315 6.16473 10.3107C6.00593 10.2347 0.955391 9.1162 0.796591 9.11965C0.731 9.1231 0.62053 9.14036 0.554938 9.16108Z" fill="#0137FF"/>
</svg>
