<svg width="174" height="47" viewBox="0 0 174 47" fill="none" xmlns="http://www.w3.org/2000/svg">
<path fill-rule="evenodd" clip-rule="evenodd" d="M162.574 12.2698V31.7807H173.077V33.8438H160.345V12.2698H162.574ZM140.992 21.8379H150.03V23.901H140.992V31.7807H151.556V33.8438H138.763V12.2698H151.556V14.3338H140.992V21.8379ZM115.776 27.7474H117.974C118.259 30.6029 119.928 32.0302 122.982 32.0302C124.569 32.0302 125.774 31.6859 126.599 30.9982C127.424 30.3105 127.836 29.3098 127.836 27.9969C127.836 26.8093 127.51 25.9123 126.859 25.3078C126.207 24.7032 125.22 24.2874 123.897 24.0575L121.516 23.6515C119.805 23.3591 118.493 22.7599 117.577 21.8531C116.661 20.9463 116.203 19.6701 116.203 18.0228C116.203 16.126 116.824 14.6459 118.064 13.5835C119.307 12.5202 120.945 11.989 122.982 11.989C124.854 11.989 126.386 12.4835 127.577 13.4744C128.766 14.4635 129.474 15.9704 129.699 17.9915H127.499C127.255 15.3033 125.739 13.9591 122.95 13.9591C121.506 13.9591 120.38 14.3079 119.577 15.0055C118.774 15.7039 118.371 16.6572 118.371 17.8663C118.371 18.9296 118.681 19.7586 119.302 20.3525C119.923 20.9463 120.863 21.3585 122.126 21.5875L124.569 22.0257C126.34 22.3378 127.694 22.9638 128.629 23.901C129.566 24.8392 130.034 26.1627 130.034 27.8717C130.034 29.832 129.393 31.3479 128.111 32.421C126.827 33.4942 125.067 34.0317 122.828 34.0317C120.711 34.0317 119.052 33.4995 117.851 32.4371C116.651 31.3738 115.959 29.8106 115.776 27.7474ZM101.674 22.4004C103.037 22.4004 104.096 22.0516 104.848 21.3532C105.602 20.6547 105.977 19.6594 105.977 18.3671C105.977 17.0328 105.606 16.0276 104.863 15.3497C104.12 14.6728 103.057 14.3338 101.674 14.3338H96.2684V22.4004H101.674ZM96.267 24.3705V33.8438H94.0392V12.2698H101.855C103.83 12.2698 105.381 12.7965 106.511 13.8491C107.641 14.9008 108.206 16.397 108.206 18.3358C108.206 19.8785 107.809 21.1502 107.015 22.15C106.221 23.1507 105.112 23.8179 103.686 24.1514L108.664 33.8438H106.099L101.335 24.3705H96.267ZM77.8875 15.4589L74.0721 26.7145H81.736L77.8875 15.4589ZM73.4327 28.6533L71.6626 33.8438H69.3109L76.9748 12.2698H78.8357L86.5014 33.8438H84.1488L82.3777 28.6533H73.4327ZM62.3501 18.7105C62.3501 17.2313 61.9528 16.1314 61.1589 15.4123C60.3651 14.6933 59.236 14.3338 57.7697 14.3338H52.6104V22.869H57.7697C59.236 22.869 60.3651 22.5247 61.1589 21.8379C61.9528 21.1502 62.3501 20.1074 62.3501 18.7105ZM64.5808 18.7105C64.5808 20.6494 63.986 22.1706 62.7949 23.2759C61.6046 24.3804 59.9908 24.9331 57.9561 24.9331H52.6125V33.8438H50.3839V12.2698H57.9561C60.0126 12.2698 61.6291 12.8278 62.8115 13.943C63.9904 15.0582 64.5808 16.6474 64.5808 18.7105ZM18.5071 46.0206C17.9552 46.0206 17.4365 45.8015 17.047 45.4053L5.56512 33.6543C5.29615 33.3842 -1.03338 26.9202 0.146418 16.8602C0.797011 11.2959 4.26131 5.9131 9.18661 2.81346C12.1531 0.947063 15.3965 0 18.8241 0C21.0946 0 23.387 0.425686 25.6383 1.26454C31.7993 3.56199 36.1299 8.26779 37.2232 13.8536C39.3846 24.9018 34.1475 31.1037 29.9392 36.0876C29.238 36.9176 28.5865 37.6893 28.0093 38.4343L27.9735 38.4826L27.7682 38.7044L27.715 38.7544C27.6512 38.8135 27.5962 38.8555 27.5394 38.8966L27.3604 39.029L27.0024 39.1953L26.6242 39.2883C26.6242 39.2883 26.3116 39.3035 26.2985 39.3035H26.2321L25.8339 39.2517L25.73 39.2141C25.7291 39.2132 25.5283 39.1399 25.4855 39.1211L25.4113 39.088C25.0646 38.8644 25.062 38.8627 25.0506 38.851L24.8235 38.6534L12.5077 26.0706C12.3889 25.949 9.60403 23.0514 10.0651 18.3787C10.5411 13.5594 14.7992 11.1099 16.7876 10.6779C17.5028 10.5214 18.2163 10.4427 18.9062 10.4427C21.7461 10.4427 24.173 11.7117 25.9239 14.1111C27.2871 15.9811 27.9071 18.2848 27.6687 20.5966C27.4626 22.5873 26.6365 24.4349 25.4567 25.5376C25.0751 25.8962 24.5782 26.0939 24.0603 26.0939C23.47 26.0939 22.9277 25.8497 22.5294 25.4052C21.7575 24.5405 21.8151 23.1945 22.6587 22.404C23.4935 21.5741 24.2131 18.8634 22.601 16.6518C21.6378 15.3319 20.4292 14.6906 18.9018 14.6906C18.5019 14.6906 18.0792 14.738 17.6478 14.8311C17.1334 14.95 14.456 16.1215 14.1905 18.8062C13.9495 21.2512 15.214 22.81 15.4707 23.098L26.2278 34.0925L26.8234 33.4307C29.7628 30.1629 35.2339 24.0808 33.2603 15.1271C32.27 10.6261 28.976 7.0283 24.2192 5.25579C22.4063 4.57881 20.589 4.23629 18.8215 4.23629C16.2183 4.23629 13.6377 4.99555 11.3576 6.4318C7.48546 8.86787 4.76781 13.0577 4.26306 17.3655C3.31642 25.4339 8.23735 30.3936 8.44781 30.6011L19.9629 42.3871C20.3576 42.7877 20.5768 43.3207 20.5803 43.8868C20.5812 44.4556 20.3681 44.9895 19.9795 45.3919C19.5874 45.797 19.0651 46.0206 18.5071 46.0206Z" fill="white"/>
</svg>
