<svg width="29" height="35" viewBox="0 0 29 35" fill="none" xmlns="http://www.w3.org/2000/svg">
<path fill-rule="evenodd" clip-rule="evenodd" d="M14.0752 35C13.6554 35 13.2609 34.8334 12.9647 34.5321L4.23243 25.595C4.02787 25.3896 -0.785917 20.4736 0.111355 12.8227C0.60615 8.59085 3.24085 4.49709 6.98668 2.13972C9.24281 0.720268 11.7095 0 14.3163 0C16.0431 0 17.7865 0.323747 19.4987 0.961718C24.1843 2.709 27.4778 6.28789 28.3093 10.536C29.9531 18.9385 25.9702 23.6553 22.7696 27.4457C22.2363 28.0769 21.7409 28.6638 21.3018 29.2304L21.2746 29.2671L21.1185 29.4358L21.078 29.4739C21.0295 29.5188 20.9877 29.5507 20.9445 29.582L20.8084 29.6827L20.5361 29.8092L20.2485 29.8799C20.2485 29.8799 20.0107 29.8915 20.0008 29.8915H19.9503L19.6474 29.852L19.5684 29.8235C19.5677 29.8228 19.415 29.767 19.3824 29.7527L19.326 29.7276C19.0623 29.5575 19.0603 29.5562 19.0517 29.5473L18.879 29.397L9.51245 19.8274C9.42213 19.7349 7.30414 17.5313 7.65482 13.9776C8.01678 10.3123 11.2552 8.44938 12.7675 8.12087C13.3114 8.00185 13.854 7.94199 14.3787 7.94199C16.5385 7.94199 18.3842 8.90711 19.7159 10.7319C20.7526 12.1541 21.2241 13.9061 21.0428 15.6643C20.8861 17.1783 20.2578 18.5835 19.3605 19.4221C19.0703 19.6948 18.6924 19.8451 18.2985 19.8451C17.8496 19.8451 17.4371 19.6594 17.1343 19.3214C16.5472 18.6637 16.591 17.6401 17.2326 17.0389C17.8675 16.4077 18.4148 14.3462 17.1887 12.6642C16.4562 11.6603 15.537 11.1727 14.3754 11.1727C14.0712 11.1727 13.7498 11.2087 13.4217 11.2794C13.0305 11.3699 10.9942 12.2609 10.7923 14.3027C10.609 16.1622 11.5707 17.3476 11.7659 17.5667L19.947 25.9283L20.3999 25.425C22.6355 22.9398 26.7964 18.3141 25.2954 11.5046C24.5423 8.08142 22.0371 5.34522 18.4194 3.99718C17.0406 3.48232 15.6585 3.22182 14.3143 3.22182C12.3344 3.22182 10.3719 3.79926 8.63776 4.89157C5.6929 6.74427 3.62606 9.93072 3.24218 13.207C2.52223 19.3432 6.26474 23.1152 6.4248 23.273L15.1823 32.2366C15.4825 32.5413 15.6492 32.9467 15.6519 33.3772C15.6526 33.8098 15.4905 34.2158 15.195 34.5219C14.8967 34.83 14.4996 35 14.0752 35Z" fill="#0137FF"/>
</svg>
