<svg width="16" height="16" viewBox="0 0 16 16" fill="none" xmlns="http://www.w3.org/2000/svg">
<path d="M6.36317 16H1.22762C0.900256 16 0.613811 15.8772 0.368286 15.6317C0.122762 15.3862 0 15.0997 0 14.7724V2.86445C0 2.53708 0.105712 2.25064 0.317136 2.00512C0.528559 1.75959 0.709293 1.63683 0.859335 1.63683H4.99233C5.08781 1.15942 5.3231 0.767263 5.69821 0.460358C6.07332 0.153453 6.50639 0 6.99744 0C7.48849 0 7.92157 0.153453 8.29667 0.460358C8.67178 0.767263 8.90708 1.15942 9.00256 1.63683H13.1355C13.4629 1.63683 13.7494 1.75959 13.9949 2.00512C14.2404 2.25064 14.3632 2.53708 14.3632 2.86445V7.0179H13.1355V2.86445H10.9668V5.5243H3.39642V2.86445H1.22762V14.7724H6.36317V16ZM10.2302 15.4885L6.95652 12.2148L7.83632 11.335L10.2302 13.7289L15.1202 8.83887L16 9.71867L10.2302 15.4885ZM7.36573 2.78261C7.59761 2.78261 7.79199 2.70418 7.94885 2.54731C8.10571 2.39045 8.18414 2.19608 8.18414 1.96419C8.18414 1.73231 8.10571 1.53794 7.94885 1.38107C7.79199 1.22421 7.59761 1.14578 7.36573 1.14578C7.13384 1.14578 6.93947 1.22421 6.78261 1.38107C6.62575 1.53794 6.54731 1.73231 6.54731 1.96419C6.54731 2.19608 6.62575 2.39045 6.78261 2.54731C6.93947 2.70418 7.13384 2.78261 7.36573 2.78261Z" fill="#0137FF"/>
</svg>
