<svg width="19" height="16" viewBox="0 0 19 16" fill="none" xmlns="http://www.w3.org/2000/svg">
<path d="M5.71434 0.0391034C4.49647 0.214105 3.38575 0.9784 2.78217 2.05698L2.65717 2.28198L1.50002 2.2927C0.396433 2.30341 0.339289 2.30699 0.246431 2.37841C0.192859 2.4177 0.114287 2.49627 0.0750008 2.54984L0 2.64627V8.28562V13.925L0.0750008 14.0214C0.257146 14.2678 0.24286 14.2643 1.34287 14.2857L2.34645 14.3035L2.41074 14.4928C2.72146 15.375 3.61789 16.0036 4.56433 16C5.48934 15.9964 6.38935 15.3643 6.69293 14.4964L6.76078 14.3035L9.12509 14.2928C11.3501 14.2857 11.4858 14.2893 11.5037 14.3464C11.8323 15.3893 12.7858 16.0571 13.843 15.9893C14.4037 15.9536 14.893 15.7286 15.3037 15.3214C15.5573 15.0643 15.7323 14.7964 15.8359 14.4964L15.9037 14.3035L16.9073 14.2857C18.0073 14.2643 17.993 14.2678 18.1752 14.0214C18.2502 13.925 18.2502 13.8857 18.2609 11.2392C18.268 9.76063 18.2609 8.49634 18.2502 8.42848C18.2323 8.32133 17.9966 8.07133 16.7037 6.77132C15.8394 5.90702 15.1287 5.2213 15.0644 5.19273C14.9716 5.15344 14.6966 5.14273 13.7537 5.14273H12.5573L12.5466 3.89629C12.5358 2.69985 12.5323 2.6427 12.4608 2.54984C12.4216 2.49627 12.343 2.4177 12.2894 2.37841C12.1966 2.30699 12.1394 2.30341 11.0358 2.2927L9.87867 2.28198L9.75367 2.05698C8.95366 0.624825 7.31793 -0.193042 5.71434 0.0391034ZM6.9465 1.22483C7.69294 1.4284 8.25723 1.83555 8.66438 2.45699C8.97866 2.93556 9.10724 3.37842 9.10724 3.99986C9.10724 4.80701 8.83938 5.45702 8.28223 6.01417C7.17507 7.12132 5.3822 7.12846 4.27147 6.03202C3.69647 5.46416 3.42861 4.81773 3.42861 3.99986C3.42861 3.37842 3.55718 2.93913 3.87504 2.44984C4.29647 1.80698 4.95719 1.35697 5.7322 1.19269C6.01792 1.13197 6.66793 1.14983 6.9465 1.22483ZM2.28217 3.79271C2.20359 5.07844 2.78574 6.35346 3.8179 7.14989C4.66433 7.80347 5.77149 8.10705 6.78578 7.96419C7.72508 7.82847 8.6608 7.33561 9.24295 6.66774C9.95725 5.84988 10.318 4.82487 10.2537 3.79271L10.2322 3.42843H10.8215H11.4108V8.28562V13.1428L9.08581 13.1357L6.76078 13.125L6.69293 12.9321C6.58578 12.6249 6.41435 12.3607 6.13935 12.0892C5.41434 11.3607 4.28219 11.2249 3.38218 11.7571C2.97146 11.9999 2.56788 12.4857 2.41431 12.9321L2.34645 13.125L1.73573 13.1357L1.12501 13.1428V8.28562V3.42843H1.7143H2.3036L2.28217 3.79271ZM14.2751 8.10347C14.2859 9.87849 14.2894 9.92492 14.3609 10.0214C14.4001 10.0749 14.4787 10.1535 14.5323 10.1928C14.6252 10.2642 14.6823 10.2678 15.8787 10.2785L17.1252 10.2892V11.7178V13.1428L16.5145 13.1357L15.9037 13.125L15.8359 12.9321C15.7287 12.6249 15.5573 12.3607 15.2823 12.0892C14.6287 11.4357 13.6323 11.2499 12.7894 11.6214C12.6751 11.6714 12.5751 11.7142 12.568 11.7142C12.5608 11.7142 12.5537 10.4928 12.5537 8.99991V6.2856H13.4109H14.2644L14.2751 8.10347ZM17.1252 8.97134V9.14277H16.268H15.4109V8.11776V7.08918L16.268 7.94633L17.1252 8.80348V8.97134ZM5.09291 12.7178C5.3322 12.8464 5.44291 12.9607 5.5822 13.2285C5.66077 13.3821 5.67506 13.4571 5.67506 13.7142C5.67863 13.9928 5.66792 14.0357 5.5572 14.2428C5.42148 14.4928 5.3072 14.6 5.03934 14.7428C4.88576 14.8214 4.81076 14.8357 4.55362 14.8357C4.29647 14.8357 4.22147 14.8214 4.0679 14.7428C3.80004 14.6 3.68575 14.4928 3.55004 14.2428C3.43932 14.0357 3.42861 13.9928 3.43218 13.7142C3.43218 13.3571 3.51789 13.1428 3.75004 12.9107C4.10719 12.5535 4.63933 12.4785 5.09291 12.7178ZM14.2359 12.7178C14.4751 12.8464 14.5859 12.9607 14.7252 13.2285C14.8037 13.3821 14.818 13.4571 14.818 13.7142C14.8216 13.9928 14.8109 14.0357 14.7002 14.2428C14.5644 14.4928 14.4501 14.6 14.1823 14.7428C14.0287 14.8214 13.9537 14.8357 13.6966 14.8357C13.4394 14.8357 13.3644 14.8214 13.2109 14.7428C12.943 14.6 12.8287 14.4928 12.693 14.2428C12.5823 14.0357 12.5716 13.9928 12.5751 13.7142C12.5751 13.3571 12.6608 13.1428 12.893 12.9107C13.2501 12.5535 13.7823 12.4785 14.2359 12.7178Z" fill="#FCE24D"/>
</svg>
