<svg width="17" height="16" viewBox="0 0 17 16" fill="none" xmlns="http://www.w3.org/2000/svg">
<path d="M4.38013 1.45523C0.931119 2.75015 0.427882 2.95881 0.237634 3.14292L0.0228381 3.35771L0.00442701 7.85616C-0.00784706 10.9492 0.00442701 12.4221 0.0535233 12.5755C0.0903455 12.7106 0.200812 12.864 0.317416 12.956C0.587445 13.1586 8.19736 16 8.46739 16C8.71901 16 16.3105 13.1708 16.5867 12.9744C16.9365 12.7228 16.9304 12.8394 16.9304 7.98504C16.9304 3.57251 16.9304 3.52341 16.8015 3.29634C16.734 3.1736 16.599 3.02631 16.513 2.97722C16.2369 2.81152 8.75583 0.0314417 8.52263 0.000756264C8.35693 -0.0176544 7.46092 0.295334 4.38013 1.45523ZM10.7872 2.81152C12.0576 3.28407 13.1377 3.70139 13.1868 3.72593C13.2604 3.76889 13.2481 3.7873 13.1254 3.8364C13.0395 3.86709 11.9594 4.27213 10.7197 4.73855L8.47353 5.57932L6.20897 4.73855C4.96929 4.27213 3.88303 3.86709 3.80325 3.8364C3.72347 3.80572 3.67437 3.76889 3.69278 3.75048C3.72961 3.71366 8.33852 1.96461 8.42443 1.95233C8.45512 1.9462 9.52296 2.33283 10.7872 2.81152ZM4.72994 6.19302L7.5407 7.24859V10.4583C7.5407 12.9867 7.52229 13.6679 7.46706 13.6679C7.4241 13.6679 6.1476 13.1954 4.62561 12.6246L1.86395 11.5875L1.84554 8.36553C1.8394 6.59193 1.85167 5.13745 1.87622 5.13745C1.89463 5.13745 3.18341 5.61 4.72994 6.19302ZM15.077 8.36553L15.0586 11.5936L12.2969 12.6308C10.7811 13.2015 9.49841 13.6679 9.46159 13.6679C9.40022 13.6679 9.38181 12.9867 9.38181 10.4583V7.24859L12.1926 6.19302C13.733 5.61614 15.0156 5.14359 15.0463 5.13745C15.0708 5.13745 15.0831 6.59193 15.077 8.36553Z" fill="#0137FF"/>
</svg>
