<svg width="16" height="17" viewBox="0 0 16 17" fill="none" xmlns="http://www.w3.org/2000/svg">
<path d="M2.82 7.87999L7.22 0.799988L11.62 7.87999H2.82ZM11.72 16.8C10.7333 16.8 9.90667 16.4667 9.24 15.8C8.57333 15.1333 8.24 14.3067 8.24 13.32C8.24 12.3333 8.57333 11.5067 9.24 10.84C9.90667 10.1733 10.7333 9.83999 11.72 9.83999C12.7067 9.83999 13.5333 10.1733 14.2 10.84C14.8667 11.5067 15.2 12.3333 15.2 13.32C15.2 14.3067 14.8667 15.1333 14.2 15.8C13.5333 16.4667 12.7067 16.8 11.72 16.8ZM0 16.3V10.22H6.08V16.3H0ZM11.72 15.6C12.36 15.6 12.9 15.38 13.34 14.94C13.78 14.5 14 13.96 14 13.32C14 12.68 13.78 12.14 13.34 11.7C12.9 11.26 12.36 11.04 11.72 11.04C11.08 11.04 10.54 11.26 10.1 11.7C9.66 12.14 9.44 12.68 9.44 13.32C9.44 13.96 9.66 14.5 10.1 14.94C10.54 15.38 11.08 15.6 11.72 15.6ZM1.2 15.1H4.88V11.42H1.2V15.1ZM4.98 6.67999H9.46L7.22 3.05999L4.98 6.67999Z" fill="#0137FF"/>
</svg>
