<svg width="16" height="16" viewBox="0 0 16 16" fill="none" xmlns="http://www.w3.org/2000/svg">
<path d="M3.55556 13.1111H6.35556L10.8 5.11111H12.4444C12.7556 5.11111 13.0185 5 13.2333 4.77778C13.4481 4.55556 13.5556 4.28889 13.5556 3.97778C13.5556 3.68148 13.4481 3.42593 13.2333 3.21111C13.0185 2.9963 12.7556 2.88889 12.4444 2.88889H9.64444L5.2 10.8889H3.55556C3.25926 10.8889 3 10.9963 2.77778 11.2111C2.55556 11.4259 2.44444 11.6889 2.44444 12C2.44444 12.2963 2.55556 12.5556 2.77778 12.7778C3 13 3.25926 13.1111 3.55556 13.1111ZM1.33333 16C0.977778 16 0.666667 15.8667 0.4 15.6C0.133333 15.3333 0 15.0222 0 14.6667V1.33333C0 0.977778 0.133333 0.666667 0.4 0.4C0.666667 0.133333 0.977778 0 1.33333 0H14.6667C15.0222 0 15.3333 0.133333 15.6 0.4C15.8667 0.666667 16 0.977778 16 1.33333V14.6667C16 15.0222 15.8667 15.3333 15.6 15.6C15.3333 15.8667 15.0222 16 14.6667 16H1.33333ZM1.33333 14.6667H14.6667V1.33333H1.33333V14.6667ZM1.33333 14.6667V1.33333V14.6667Z" fill="#0137FF"/>
</svg>
