<svg width="16" height="16" viewBox="0 0 16 16" fill="none" xmlns="http://www.w3.org/2000/svg">
<path d="M4.2 4.86667C4.37778 4.86667 4.53333 4.8 4.66667 4.66667C4.8 4.53333 4.86667 4.37778 4.86667 4.2C4.86667 4.02222 4.8 3.86667 4.66667 3.73333C4.53333 3.6 4.37778 3.53333 4.2 3.53333C4.02222 3.53333 3.86667 3.6 3.73333 3.73333C3.6 3.86667 3.53333 4.02222 3.53333 4.2C3.53333 4.37778 3.6 4.53333 3.73333 4.66667C3.86667 4.8 4.02222 4.86667 4.2 4.86667ZM4.2 8.66667C4.37778 8.66667 4.53333 8.6 4.66667 8.46667C4.8 8.33333 4.86667 8.17778 4.86667 8C4.86667 7.82222 4.8 7.66667 4.66667 7.53333C4.53333 7.4 4.37778 7.33333 4.2 7.33333C4.02222 7.33333 3.86667 7.4 3.73333 7.53333C3.6 7.66667 3.53333 7.82222 3.53333 8C3.53333 8.17778 3.6 8.33333 3.73333 8.46667C3.86667 8.6 4.02222 8.66667 4.2 8.66667ZM4.2 12.4667C4.37778 12.4667 4.53333 12.4 4.66667 12.2667C4.8 12.1333 4.86667 11.9778 4.86667 11.8C4.86667 11.6222 4.8 11.4667 4.66667 11.3333C4.53333 11.2 4.37778 11.1333 4.2 11.1333C4.02222 11.1333 3.86667 11.2 3.73333 11.3333C3.6 11.4667 3.53333 11.6222 3.53333 11.8C3.53333 11.9778 3.6 12.1333 3.73333 12.2667C3.86667 12.4 4.02222 12.4667 4.2 12.4667ZM1.33333 16C0.977778 16 0.666667 15.8667 0.4 15.6C0.133333 15.3333 0 15.0222 0 14.6667V1.33333C0 0.977778 0.133333 0.666667 0.4 0.4C0.666667 0.133333 0.977778 0 1.33333 0H11.6L16 4.4V14.6667C16 15.0222 15.8667 15.3333 15.6 15.6C15.3333 15.8667 15.0222 16 14.6667 16H1.33333ZM1.33333 14.6667H14.6667V5.13333H10.8667V1.33333H1.33333V14.6667ZM1.33333 1.33333V5.13333V14.6667V1.33333Z" fill="#0137FF"/>
</svg>
