<svg width="16" height="22" viewBox="0 0 16 22" fill="none" xmlns="http://www.w3.org/2000/svg">
<path d="M7.25 15.0303V14.5455H8.75V15.0303H7.25ZM7.25 14.0606V13.1636C6.96667 12.9859 6.72917 12.7677 6.5375 12.5091C6.34583 12.2505 6.25 11.9596 6.25 11.6364C6.25 11.1677 6.42083 10.7677 6.7625 10.4364C7.10417 10.1051 7.51667 9.93939 8 9.93939C8.48333 9.93939 8.89583 10.1051 9.2375 10.4364C9.57917 10.7677 9.75 11.1677 9.75 11.6364C9.75 11.9596 9.65417 12.2505 9.4625 12.5091C9.27083 12.7677 9.03333 12.9859 8.75 13.1636V14.0606H7.25ZM11.975 14.1091L11.275 13.4303C11.4417 13.1556 11.5625 12.8687 11.6375 12.5697C11.7125 12.2707 11.75 11.9596 11.75 11.6364C11.75 11.3131 11.7125 11.002 11.6375 10.703C11.5625 10.404 11.4417 10.1172 11.275 9.84242L11.975 9.16364C12.225 9.53535 12.4167 9.93131 12.55 10.3515C12.6833 10.7717 12.75 11.2 12.75 11.6364C12.75 12.0727 12.6833 12.501 12.55 12.9212C12.4167 13.3414 12.225 13.7374 11.975 14.1091ZM4.025 14.1091C3.775 13.7374 3.58333 13.3414 3.45 12.9212C3.31667 12.501 3.25 12.0727 3.25 11.6364C3.25 10.3273 3.74167 9.23232 4.725 8.35152C5.70833 7.47071 6.88333 7.0303 8.25 7.0303V6.10909L9.875 7.51515L8.25 8.92121V8C7.15 8 6.20833 8.34748 5.425 9.04242C4.64167 9.73737 4.25 10.602 4.25 11.6364C4.25 11.9596 4.2875 12.2707 4.3625 12.5697C4.4375 12.8687 4.55833 13.1556 4.725 13.4303L4.025 14.1091ZM1.5 21.3333C1.08333 21.3333 0.729167 21.1919 0.4375 20.9091C0.145833 20.6263 0 20.2828 0 19.8788V1.45455C0 1.05051 0.145833 0.707071 0.4375 0.424242C0.729167 0.141414 1.08333 0 1.5 0H14.5C14.9167 0 15.2708 0.141414 15.5625 0.424242C15.8542 0.707071 16 1.05051 16 1.45455V19.8788C16 20.2828 15.8542 20.6263 15.5625 20.9091C15.2708 21.1919 14.9167 21.3333 14.5 21.3333H1.5ZM1.5 17.697H14.5V3.63636H1.5V17.697ZM1.5 19.1515V19.8788H14.5V19.1515H1.5ZM1.5 2.18182H14.5V1.45455H1.5V2.18182ZM1.5 1.45455V2.18182V1.45455ZM1.5 19.8788V19.1515V19.8788Z" fill="#0137FF"/>
</svg>
